# xmcd CD database file
#
# Track frame offsets:
#	150
#	17029
#	36092
#	55906
#	76815
#	96018
#	114656
#	132654
#	150732
#	171210
#	189513
#
# Disc length: 2772 seconds
#
# Revision: 2
# Processed by: cddbd v1.5.2PL0 Copyright (c) Steve Scherf et al.
# Submitted via: CDex 1.70beta2
#
DISCID=8a0ad20b
DTITLE=倉木 麻衣 - If I Believe
DYEAR=2003
DGENRE=Pop
TTITLE0=If I Believe
TTITLE1=Time after time
TTITLE2=風のららら
TTITLE3=Kiss
TTITLE4=mi corazon
TTITLE5=I don't wanna lose you
TTITLE6=Make my day
TTITLE7=SAME
TTITLE8=Jast A Little Bit
TTITLE9=You are not the only you
TTITLE10=Tonigth,I feel close to you
EXTD=YEAR: 2003
EXTT0=
EXTT1=
EXTT2=
EXTT3=
EXTT4=
EXTT5=
EXTT6=
EXTT7=
EXTT8=
EXTT9=
EXTT10=
PLAYORDER=
